<mxfile host="65bd71144e">
    <diagram id="XKLjf3QSszFQ2poeF9Ot" name="PÃ¡gina-1">
        <mxGraphModel dx="1047" dy="670" grid="1" gridSize="10" guides="1" tooltips="1" connect="1" arrows="1" fold="1" page="1" pageScale="1" pageWidth="827" pageHeight="1169" math="0" shadow="0">
            <root>
                <mxCell id="0"/>
                <mxCell id="1" parent="0"/>
                <mxCell id="30" style="edgeStyle=orthogonalEdgeStyle;rounded=0;orthogonalLoop=1;jettySize=auto;html=1;exitX=1;exitY=0.5;exitDx=0;exitDy=0;entryX=0;entryY=0.5;entryDx=0;entryDy=0;startArrow=none;startFill=0;endArrow=none;endFill=0;" parent="1" source="3" target="29" edge="1">
                    <mxGeometry relative="1" as="geometry">
                        <mxPoint x="303" y="570" as="sourcePoint"/>
                    </mxGeometry>
                </mxCell>
                <mxCell id="33" style="edgeStyle=orthogonalEdgeStyle;rounded=0;orthogonalLoop=1;jettySize=auto;html=1;exitX=0.5;exitY=0;exitDx=0;exitDy=0;entryX=0;entryY=0.5;entryDx=0;entryDy=0;startArrow=none;startFill=0;endArrow=none;endFill=0;" parent="1" source="3" target="8" edge="1">
                    <mxGeometry relative="1" as="geometry"/>
                </mxCell>
                <mxCell id="93" style="edgeStyle=orthogonalEdgeStyle;rounded=0;orthogonalLoop=1;jettySize=auto;html=1;exitX=0;exitY=0.25;exitDx=0;exitDy=0;entryX=1.009;entryY=0.511;entryDx=0;entryDy=0;entryPerimeter=0;startArrow=none;startFill=0;endArrow=oval;endFill=1;" edge="1" parent="1" source="3" target="72">
                    <mxGeometry relative="1" as="geometry"/>
                </mxCell>
                <mxCell id="94" style="edgeStyle=orthogonalEdgeStyle;rounded=0;orthogonalLoop=1;jettySize=auto;html=1;exitX=0.25;exitY=0;exitDx=0;exitDy=0;entryX=0.506;entryY=1.2;entryDx=0;entryDy=0;entryPerimeter=0;startArrow=none;startFill=0;endArrow=oval;endFill=0;" edge="1" parent="1" source="3" target="76">
                    <mxGeometry relative="1" as="geometry"/>
                </mxCell>
                <mxCell id="95" style="edgeStyle=orthogonalEdgeStyle;rounded=0;orthogonalLoop=1;jettySize=auto;html=1;exitX=0.75;exitY=0;exitDx=0;exitDy=0;startArrow=none;startFill=0;endArrow=oval;endFill=0;entryX=0.497;entryY=1.117;entryDx=0;entryDy=0;entryPerimeter=0;" edge="1" parent="1" source="3" target="73">
                    <mxGeometry relative="1" as="geometry">
                        <mxPoint x="220" y="480.0000000000001" as="targetPoint"/>
                    </mxGeometry>
                </mxCell>
                <mxCell id="96" style="edgeStyle=orthogonalEdgeStyle;rounded=0;orthogonalLoop=1;jettySize=auto;html=1;exitX=1;exitY=0;exitDx=0;exitDy=0;entryX=0.508;entryY=1.144;entryDx=0;entryDy=0;entryPerimeter=0;startArrow=none;startFill=0;endArrow=oval;endFill=0;" edge="1" parent="1" source="3" target="77">
                    <mxGeometry relative="1" as="geometry">
                        <Array as="points">
                            <mxPoint x="270" y="550"/>
                        </Array>
                    </mxGeometry>
                </mxCell>
                <mxCell id="97" style="edgeStyle=orthogonalEdgeStyle;rounded=0;orthogonalLoop=1;jettySize=auto;html=1;exitX=0.75;exitY=1;exitDx=0;exitDy=0;entryX=-0.026;entryY=0.672;entryDx=0;entryDy=0;entryPerimeter=0;startArrow=none;startFill=0;endArrow=oval;endFill=0;" edge="1" parent="1" source="3" target="74">
                    <mxGeometry relative="1" as="geometry">
                        <Array as="points">
                            <mxPoint x="180" y="590"/>
                            <mxPoint x="180" y="623"/>
                        </Array>
                    </mxGeometry>
                </mxCell>
                <mxCell id="98" style="edgeStyle=orthogonalEdgeStyle;rounded=0;orthogonalLoop=1;jettySize=auto;html=1;exitX=0.25;exitY=1;exitDx=0;exitDy=0;entryX=0.5;entryY=0;entryDx=0;entryDy=0;entryPerimeter=0;startArrow=none;startFill=0;endArrow=oval;endFill=0;" edge="1" parent="1" source="3" target="75">
                    <mxGeometry relative="1" as="geometry"/>
                </mxCell>
                <mxCell id="3" value="Centro" style="whiteSpace=wrap;html=1;align=center;" parent="1" vertex="1">
                    <mxGeometry x="110" y="550" width="100" height="40" as="geometry"/>
                </mxCell>
                <mxCell id="46" style="rounded=0;orthogonalLoop=1;jettySize=auto;html=1;exitX=0;exitY=1;exitDx=0;exitDy=0;startArrow=none;startFill=0;endArrow=oval;endFill=1;edgeStyle=orthogonalEdgeStyle;" parent="1" source="4" edge="1">
                    <mxGeometry relative="1" as="geometry">
                        <mxPoint x="530" y="637" as="targetPoint"/>
                    </mxGeometry>
                </mxCell>
                <mxCell id="58" style="edgeStyle=orthogonalEdgeStyle;rounded=0;orthogonalLoop=1;jettySize=auto;html=1;exitX=0.25;exitY=1;exitDx=0;exitDy=0;entryX=0.511;entryY=-0.2;entryDx=0;entryDy=0;entryPerimeter=0;startArrow=none;startFill=0;endArrow=oval;endFill=0;" edge="1" parent="1" source="4" target="57">
                    <mxGeometry relative="1" as="geometry"/>
                </mxCell>
                <mxCell id="60" style="edgeStyle=orthogonalEdgeStyle;rounded=0;orthogonalLoop=1;jettySize=auto;html=1;exitX=0;exitY=0.25;exitDx=0;exitDy=0;entryX=0.533;entryY=1.133;entryDx=0;entryDy=0;entryPerimeter=0;startArrow=none;startFill=0;endArrow=oval;endFill=0;" edge="1" parent="1" source="4" target="55">
                    <mxGeometry relative="1" as="geometry"/>
                </mxCell>
                <mxCell id="61" style="edgeStyle=orthogonalEdgeStyle;rounded=0;orthogonalLoop=1;jettySize=auto;html=1;exitX=0.25;exitY=0;exitDx=0;exitDy=0;entryX=0.593;entryY=1.072;entryDx=0;entryDy=0;entryPerimeter=0;startArrow=none;startFill=0;endArrow=oval;endFill=0;" edge="1" parent="1" source="4" target="56">
                    <mxGeometry relative="1" as="geometry">
                        <Array as="points">
                            <mxPoint x="615" y="500"/>
                            <mxPoint x="575" y="500"/>
                        </Array>
                    </mxGeometry>
                </mxCell>
                <mxCell id="62" style="edgeStyle=orthogonalEdgeStyle;rounded=0;orthogonalLoop=1;jettySize=auto;html=1;exitX=0.847;exitY=0.016;exitDx=0;exitDy=0;startArrow=none;startFill=0;endArrow=oval;endFill=0;exitPerimeter=0;entryX=0.497;entryY=1.049;entryDx=0;entryDy=0;entryPerimeter=0;" edge="1" parent="1" source="4" target="54">
                    <mxGeometry relative="1" as="geometry">
                        <mxPoint x="675" y="510" as="targetPoint"/>
                        <Array as="points">
                            <mxPoint x="675" y="510"/>
                            <mxPoint x="695" y="510"/>
                        </Array>
                    </mxGeometry>
                </mxCell>
                <mxCell id="63" style="edgeStyle=orthogonalEdgeStyle;rounded=0;orthogonalLoop=1;jettySize=auto;html=1;exitX=1;exitY=0.25;exitDx=0;exitDy=0;entryX=-0.007;entryY=0.477;entryDx=0;entryDy=0;entryPerimeter=0;startArrow=none;startFill=0;endArrow=oval;endFill=0;" edge="1" parent="1" source="4" target="53">
                    <mxGeometry relative="1" as="geometry"/>
                </mxCell>
                <mxCell id="64" style="edgeStyle=orthogonalEdgeStyle;rounded=0;orthogonalLoop=1;jettySize=auto;html=1;exitX=0.75;exitY=1;exitDx=0;exitDy=0;entryX=0.493;entryY=-0.134;entryDx=0;entryDy=0;entryPerimeter=0;startArrow=none;startFill=0;endArrow=oval;endFill=0;" edge="1" parent="1" source="4" target="51">
                    <mxGeometry relative="1" as="geometry"/>
                </mxCell>
                <mxCell id="65" style="edgeStyle=orthogonalEdgeStyle;rounded=0;orthogonalLoop=1;jettySize=auto;html=1;exitX=1;exitY=0.75;exitDx=0;exitDy=0;startArrow=none;startFill=0;endArrow=oval;endFill=0;entryX=-0.022;entryY=0.433;entryDx=0;entryDy=0;entryPerimeter=0;" edge="1" parent="1" source="4" target="52">
                    <mxGeometry relative="1" as="geometry">
                        <mxPoint x="740" y="580" as="targetPoint"/>
                        <Array as="points">
                            <mxPoint x="740" y="580"/>
                            <mxPoint x="740" y="563"/>
                        </Array>
                    </mxGeometry>
                </mxCell>
                <mxCell id="4" value="Socios" style="whiteSpace=wrap;html=1;align=center;direction=east;" parent="1" vertex="1">
                    <mxGeometry x="590" y="550" width="100" height="40" as="geometry"/>
                </mxCell>
                <mxCell id="18" style="edgeStyle=orthogonalEdgeStyle;rounded=0;orthogonalLoop=1;jettySize=auto;html=1;exitX=0.5;exitY=1;exitDx=0;exitDy=0;entryX=0.5;entryY=0;entryDx=0;entryDy=0;endArrow=none;endFill=0;" parent="1" source="5" target="8" edge="1">
                    <mxGeometry relative="1" as="geometry">
                        <mxPoint x="413" y="290" as="sourcePoint"/>
                    </mxGeometry>
                </mxCell>
                <mxCell id="87" style="edgeStyle=orthogonalEdgeStyle;rounded=0;orthogonalLoop=1;jettySize=auto;html=1;exitX=0.75;exitY=0;exitDx=0;exitDy=0;entryX=-0.02;entryY=0.517;entryDx=0;entryDy=0;entryPerimeter=0;startArrow=none;startFill=0;endArrow=oval;endFill=0;" edge="1" parent="1" source="5" target="79">
                    <mxGeometry relative="1" as="geometry">
                        <Array as="points">
                            <mxPoint x="435" y="120"/>
                            <mxPoint x="435" y="80"/>
                        </Array>
                    </mxGeometry>
                </mxCell>
                <mxCell id="88" style="edgeStyle=orthogonalEdgeStyle;rounded=0;orthogonalLoop=1;jettySize=auto;html=1;exitX=1;exitY=0.5;exitDx=0;exitDy=0;entryX=0.508;entryY=-0.076;entryDx=0;entryDy=0;entryPerimeter=0;startArrow=none;startFill=0;endArrow=oval;endFill=0;" edge="1" parent="1" source="5" target="81">
                    <mxGeometry relative="1" as="geometry"/>
                </mxCell>
                <mxCell id="89" style="edgeStyle=orthogonalEdgeStyle;rounded=0;orthogonalLoop=1;jettySize=auto;html=1;exitX=0;exitY=0.75;exitDx=0;exitDy=0;entryX=1.016;entryY=0.506;entryDx=0;entryDy=0;entryPerimeter=0;startArrow=none;startFill=0;endArrow=oval;endFill=0;" edge="1" parent="1" source="5" target="80">
                    <mxGeometry relative="1" as="geometry"/>
                </mxCell>
                <mxCell id="90" style="edgeStyle=orthogonalEdgeStyle;rounded=0;orthogonalLoop=1;jettySize=auto;html=1;exitX=0.25;exitY=0;exitDx=0;exitDy=0;entryX=0.486;entryY=1.172;entryDx=0;entryDy=0;entryPerimeter=0;startArrow=none;startFill=0;endArrow=oval;endFill=1;" edge="1" parent="1" source="5" target="78">
                    <mxGeometry relative="1" as="geometry"/>
                </mxCell>
                <mxCell id="5" value="Actividades" style="whiteSpace=wrap;html=1;align=center;" parent="1" vertex="1">
                    <mxGeometry x="363" y="120" width="100" height="40" as="geometry"/>
                </mxCell>
                <mxCell id="22" style="edgeStyle=orthogonalEdgeStyle;rounded=0;orthogonalLoop=1;jettySize=auto;html=1;exitX=0;exitY=0.5;exitDx=0;exitDy=0;entryX=0.5;entryY=1;entryDx=0;entryDy=0;endArrow=none;endFill=0;" parent="1" source="6" target="21" edge="1">
                    <mxGeometry relative="1" as="geometry">
                        <mxPoint x="253" y="760" as="targetPoint"/>
                    </mxGeometry>
                </mxCell>
                <mxCell id="26" style="edgeStyle=orthogonalEdgeStyle;rounded=0;orthogonalLoop=1;jettySize=auto;html=1;exitX=1;exitY=0.5;exitDx=0;exitDy=0;entryX=0.5;entryY=1;entryDx=0;entryDy=0;endArrow=none;endFill=0;" parent="1" source="6" target="25" edge="1">
                    <mxGeometry relative="1" as="geometry">
                        <mxPoint x="573" y="760" as="targetPoint"/>
                    </mxGeometry>
                </mxCell>
                <mxCell id="99" style="edgeStyle=orthogonalEdgeStyle;rounded=0;orthogonalLoop=1;jettySize=auto;html=1;exitX=0.25;exitY=0;exitDx=0;exitDy=0;entryX=0.523;entryY=1.148;entryDx=0;entryDy=0;entryPerimeter=0;startArrow=none;startFill=0;endArrow=oval;endFill=1;" edge="1" parent="1" source="6" target="66">
                    <mxGeometry relative="1" as="geometry"/>
                </mxCell>
                <mxCell id="100" style="edgeStyle=orthogonalEdgeStyle;rounded=0;orthogonalLoop=1;jettySize=auto;html=1;exitX=0.75;exitY=0;exitDx=0;exitDy=0;entryX=-0.011;entryY=0.61;entryDx=0;entryDy=0;entryPerimeter=0;startArrow=none;startFill=0;endArrow=oval;endFill=0;" edge="1" parent="1" source="6" target="68">
                    <mxGeometry relative="1" as="geometry"/>
                </mxCell>
                <mxCell id="101" style="edgeStyle=orthogonalEdgeStyle;rounded=0;orthogonalLoop=1;jettySize=auto;html=1;exitX=0.5;exitY=1;exitDx=0;exitDy=0;entryX=0.565;entryY=-0.051;entryDx=0;entryDy=0;entryPerimeter=0;startArrow=none;startFill=0;endArrow=oval;endFill=0;" edge="1" parent="1" source="6" target="67">
                    <mxGeometry relative="1" as="geometry"/>
                </mxCell>
                <mxCell id="6" value="Sala" style="shape=ext;margin=3;double=1;whiteSpace=wrap;html=1;align=center;" parent="1" vertex="1">
                    <mxGeometry x="364" y="980" width="100" height="40" as="geometry"/>
                </mxCell>
                <mxCell id="28" style="edgeStyle=orthogonalEdgeStyle;rounded=0;orthogonalLoop=1;jettySize=auto;html=1;exitX=1;exitY=0.5;exitDx=0;exitDy=0;endArrow=none;endFill=0;entryX=0.5;entryY=0;entryDx=0;entryDy=0;startArrow=none;startFill=0;" parent="1" source="8" target="4" edge="1">
                    <mxGeometry relative="1" as="geometry">
                        <mxPoint x="573" y="550" as="targetPoint"/>
                    </mxGeometry>
                </mxCell>
                <mxCell id="8" value="Matricular&lt;br&gt;" style="shape=rhombus;perimeter=rhombusPerimeter;whiteSpace=wrap;html=1;align=center;" parent="1" vertex="1">
                    <mxGeometry x="353" y="290" width="120" height="60" as="geometry"/>
                </mxCell>
                <mxCell id="23" style="edgeStyle=orthogonalEdgeStyle;rounded=0;orthogonalLoop=1;jettySize=auto;html=1;exitX=0.5;exitY=0;exitDx=0;exitDy=0;entryX=0.5;entryY=1;entryDx=0;entryDy=0;endArrow=none;endFill=0;" parent="1" source="21" target="3" edge="1">
                    <mxGeometry relative="1" as="geometry">
                        <mxPoint x="253" y="700" as="sourcePoint"/>
                        <mxPoint x="253" y="590" as="targetPoint"/>
                    </mxGeometry>
                </mxCell>
                <mxCell id="21" value="Tienen" style="shape=rhombus;perimeter=rhombusPerimeter;whiteSpace=wrap;html=1;align=center;" parent="1" vertex="1">
                    <mxGeometry x="100" y="730" width="120" height="60" as="geometry"/>
                </mxCell>
                <mxCell id="27" style="edgeStyle=orthogonalEdgeStyle;rounded=0;orthogonalLoop=1;jettySize=auto;html=1;exitX=0.5;exitY=0;exitDx=0;exitDy=0;endArrow=none;endFill=0;entryX=0.5;entryY=1;entryDx=0;entryDy=0;" parent="1" source="25" target="4" edge="1">
                    <mxGeometry relative="1" as="geometry">
                        <mxPoint x="573" y="700" as="sourcePoint"/>
                        <mxPoint x="573" y="590" as="targetPoint"/>
                    </mxGeometry>
                </mxCell>
                <mxCell id="84" style="edgeStyle=orthogonalEdgeStyle;rounded=0;orthogonalLoop=1;jettySize=auto;html=1;exitX=0;exitY=0.5;exitDx=0;exitDy=0;entryX=0.481;entryY=-0.022;entryDx=0;entryDy=0;entryPerimeter=0;startArrow=none;startFill=0;endArrow=oval;endFill=0;" edge="1" parent="1" source="25" target="70">
                    <mxGeometry relative="1" as="geometry"/>
                </mxCell>
                <mxCell id="85" style="edgeStyle=orthogonalEdgeStyle;rounded=0;orthogonalLoop=1;jettySize=auto;html=1;exitX=1;exitY=0.5;exitDx=0;exitDy=0;entryX=-0.008;entryY=0.517;entryDx=0;entryDy=0;entryPerimeter=0;startArrow=none;startFill=0;endArrow=oval;endFill=0;" edge="1" parent="1" source="25" target="71">
                    <mxGeometry relative="1" as="geometry"/>
                </mxCell>
                <mxCell id="86" style="edgeStyle=orthogonalEdgeStyle;rounded=0;orthogonalLoop=1;jettySize=auto;html=1;exitX=1;exitY=1;exitDx=0;exitDy=0;entryX=0.487;entryY=-0.05;entryDx=0;entryDy=0;entryPerimeter=0;startArrow=none;startFill=0;endArrow=oval;endFill=0;" edge="1" parent="1" source="25" target="69">
                    <mxGeometry relative="1" as="geometry"/>
                </mxCell>
                <mxCell id="25" value="Reservar" style="shape=rhombus;perimeter=rhombusPerimeter;whiteSpace=wrap;html=1;align=center;" parent="1" vertex="1">
                    <mxGeometry x="580" y="730" width="120" height="60" as="geometry"/>
                </mxCell>
                <mxCell id="31" style="edgeStyle=orthogonalEdgeStyle;rounded=0;orthogonalLoop=1;jettySize=auto;html=1;exitX=1;exitY=0.5;exitDx=0;exitDy=0;entryX=0;entryY=0.5;entryDx=0;entryDy=0;startArrow=none;startFill=0;endArrow=none;endFill=0;" parent="1" source="29" target="4" edge="1">
                    <mxGeometry relative="1" as="geometry">
                        <mxPoint x="523" y="570" as="targetPoint"/>
                    </mxGeometry>
                </mxCell>
                <mxCell id="91" style="edgeStyle=orthogonalEdgeStyle;rounded=0;orthogonalLoop=1;jettySize=auto;html=1;exitX=0.5;exitY=0;exitDx=0;exitDy=0;entryX=0.48;entryY=1.133;entryDx=0;entryDy=0;entryPerimeter=0;startArrow=none;startFill=0;endArrow=oval;endFill=0;" edge="1" parent="1" source="29" target="83">
                    <mxGeometry relative="1" as="geometry"/>
                </mxCell>
                <mxCell id="92" style="edgeStyle=orthogonalEdgeStyle;rounded=0;orthogonalLoop=1;jettySize=auto;html=1;exitX=0.5;exitY=1;exitDx=0;exitDy=0;entryX=0.49;entryY=-0.022;entryDx=0;entryDy=0;entryPerimeter=0;startArrow=none;startFill=0;endArrow=oval;endFill=0;" edge="1" parent="1" source="29" target="82">
                    <mxGeometry relative="1" as="geometry"/>
                </mxCell>
                <mxCell id="29" value="Pertenecer&lt;br&gt;" style="shape=rhombus;perimeter=rhombusPerimeter;whiteSpace=wrap;html=1;align=center;" parent="1" vertex="1">
                    <mxGeometry x="353" y="540" width="120" height="60" as="geometry"/>
                </mxCell>
                <mxCell id="45" value="DNI" style="text;html=1;align=center;verticalAlign=middle;resizable=0;points=[];autosize=1;strokeColor=none;" parent="1" vertex="1">
                    <mxGeometry x="510" y="640" width="40" height="20" as="geometry"/>
                </mxCell>
                <mxCell id="48" value="(1,1)" style="text;html=1;align=center;verticalAlign=middle;resizable=0;points=[];autosize=1;strokeColor=none;" parent="1" vertex="1">
                    <mxGeometry x="55" y="600" width="40" height="20" as="geometry"/>
                </mxCell>
                <mxCell id="49" value="(1,N)" style="text;html=1;align=center;verticalAlign=middle;resizable=0;points=[];autosize=1;strokeColor=none;" parent="1" vertex="1">
                    <mxGeometry x="300" y="1020" width="40" height="20" as="geometry"/>
                </mxCell>
                <mxCell id="50" value="1:N" style="text;html=1;align=center;verticalAlign=middle;resizable=0;points=[];autosize=1;strokeColor=none;" parent="1" vertex="1">
                    <mxGeometry x="60" y="750" width="30" height="20" as="geometry"/>
                </mxCell>
                <mxCell id="51" value="Nombre" style="text;html=1;align=center;verticalAlign=middle;resizable=0;points=[];autosize=1;strokeColor=none;" vertex="1" parent="1">
                    <mxGeometry x="725" y="630" width="60" height="20" as="geometry"/>
                </mxCell>
                <mxCell id="52" value="Primer&lt;br&gt;apellido" style="text;html=1;align=center;verticalAlign=middle;resizable=0;points=[];autosize=1;strokeColor=none;" vertex="1" parent="1">
                    <mxGeometry x="750" y="550" width="60" height="30" as="geometry"/>
                </mxCell>
                <mxCell id="53" value="NÂº de cuenta" style="text;html=1;align=center;verticalAlign=middle;resizable=0;points=[];autosize=1;strokeColor=none;" vertex="1" parent="1">
                    <mxGeometry x="730" y="520" width="80" height="20" as="geometry"/>
                </mxCell>
                <mxCell id="54" value="Fecha de&lt;br&gt;nacimiento" style="text;html=1;align=center;verticalAlign=middle;resizable=0;points=[];autosize=1;strokeColor=none;" vertex="1" parent="1">
                    <mxGeometry x="660" y="460" width="70" height="30" as="geometry"/>
                </mxCell>
                <mxCell id="55" value="Segundo &lt;br&gt;apellido" style="text;html=1;align=center;verticalAlign=middle;resizable=0;points=[];autosize=1;strokeColor=none;" vertex="1" parent="1">
                    <mxGeometry x="540" y="505" width="60" height="30" as="geometry"/>
                </mxCell>
                <mxCell id="56" value="Email" style="text;html=1;align=center;verticalAlign=middle;resizable=0;points=[];autosize=1;strokeColor=none;" vertex="1" parent="1">
                    <mxGeometry x="545" y="470" width="50" height="20" as="geometry"/>
                </mxCell>
                <mxCell id="57" value="NÂº de&amp;nbsp;&lt;br&gt;telÃ©fono" style="text;html=1;align=center;verticalAlign=middle;resizable=0;points=[];autosize=1;strokeColor=none;" vertex="1" parent="1">
                    <mxGeometry x="560" y="655" width="60" height="30" as="geometry"/>
                </mxCell>
                <mxCell id="66" value="Nombre" style="text;html=1;align=center;verticalAlign=middle;resizable=0;points=[];autosize=1;strokeColor=none;" vertex="1" parent="1">
                    <mxGeometry x="330" y="920" width="60" height="20" as="geometry"/>
                </mxCell>
                <mxCell id="67" value="Metros&lt;br&gt;cuadrados" style="text;html=1;align=center;verticalAlign=middle;resizable=0;points=[];autosize=1;strokeColor=none;" vertex="1" parent="1">
                    <mxGeometry x="378" y="1060" width="70" height="30" as="geometry"/>
                </mxCell>
                <mxCell id="68" value="ExplicaciÃ³n" style="text;html=1;align=center;verticalAlign=middle;resizable=0;points=[];autosize=1;strokeColor=none;" vertex="1" parent="1">
                    <mxGeometry x="480" y="940" width="80" height="20" as="geometry"/>
                </mxCell>
                <mxCell id="69" value="Fecha" style="text;html=1;align=center;verticalAlign=middle;resizable=0;points=[];autosize=1;strokeColor=none;" vertex="1" parent="1">
                    <mxGeometry x="695" y="820" width="50" height="20" as="geometry"/>
                </mxCell>
                <mxCell id="70" value="Hora de&lt;br&gt;comienzo" style="text;html=1;align=center;verticalAlign=middle;resizable=0;points=[];autosize=1;strokeColor=none;" vertex="1" parent="1">
                    <mxGeometry x="505" y="785" width="70" height="30" as="geometry"/>
                </mxCell>
                <mxCell id="71" value="Hora de final" style="text;html=1;align=center;verticalAlign=middle;resizable=0;points=[];autosize=1;strokeColor=none;" vertex="1" parent="1">
                    <mxGeometry x="740" y="750" width="80" height="20" as="geometry"/>
                </mxCell>
                <mxCell id="72" value="CÃ³digo" style="text;html=1;align=center;verticalAlign=middle;resizable=0;points=[];autosize=1;strokeColor=none;" vertex="1" parent="1">
                    <mxGeometry x="35" y="550" width="50" height="20" as="geometry"/>
                </mxCell>
                <mxCell id="73" value="Nombre" style="text;html=1;align=center;verticalAlign=middle;resizable=0;points=[];autosize=1;strokeColor=none;" vertex="1" parent="1">
                    <mxGeometry x="190" y="455" width="60" height="20" as="geometry"/>
                </mxCell>
                <mxCell id="74" value="DirecciÃ³n" style="text;html=1;align=center;verticalAlign=middle;resizable=0;points=[];autosize=1;strokeColor=none;" vertex="1" parent="1">
                    <mxGeometry x="200" y="610" width="70" height="20" as="geometry"/>
                </mxCell>
                <mxCell id="75" value="Ciudad" style="text;html=1;align=center;verticalAlign=middle;resizable=0;points=[];autosize=1;strokeColor=none;" vertex="1" parent="1">
                    <mxGeometry x="85" y="640" width="50" height="20" as="geometry"/>
                </mxCell>
                <mxCell id="76" value="TelÃ©fono" style="text;html=1;align=center;verticalAlign=middle;resizable=0;points=[];autosize=1;strokeColor=none;" vertex="1" parent="1">
                    <mxGeometry x="25" y="490" width="60" height="20" as="geometry"/>
                </mxCell>
                <mxCell id="77" value="Email" style="text;html=1;align=center;verticalAlign=middle;resizable=0;points=[];autosize=1;strokeColor=none;" vertex="1" parent="1">
                    <mxGeometry x="245" y="505" width="50" height="20" as="geometry"/>
                </mxCell>
                <mxCell id="78" value="CÃ³digo" style="text;html=1;align=center;verticalAlign=middle;resizable=0;points=[];autosize=1;strokeColor=none;" vertex="1" parent="1">
                    <mxGeometry x="335" y="50" width="50" height="20" as="geometry"/>
                </mxCell>
                <mxCell id="79" value="Fecha" style="text;html=1;align=center;verticalAlign=middle;resizable=0;points=[];autosize=1;strokeColor=none;" vertex="1" parent="1">
                    <mxGeometry x="455" y="70" width="50" height="20" as="geometry"/>
                </mxCell>
                <mxCell id="80" value="Nombre" style="text;html=1;align=center;verticalAlign=middle;resizable=0;points=[];autosize=1;strokeColor=none;" vertex="1" parent="1">
                    <mxGeometry x="260" y="140" width="60" height="20" as="geometry"/>
                </mxCell>
                <mxCell id="81" value="ExplicaciÃ³n" style="text;html=1;align=center;verticalAlign=middle;resizable=0;points=[];autosize=1;strokeColor=none;" vertex="1" parent="1">
                    <mxGeometry x="480" y="180" width="80" height="20" as="geometry"/>
                </mxCell>
                <mxCell id="82" value="NÂº de socio" style="text;html=1;align=center;verticalAlign=middle;resizable=0;points=[];autosize=1;strokeColor=none;" vertex="1" parent="1">
                    <mxGeometry x="374" y="630" width="80" height="20" as="geometry"/>
                </mxCell>
                <mxCell id="83" value="Fecha de&amp;nbsp;&lt;br&gt;alta" style="text;html=1;align=center;verticalAlign=middle;resizable=0;points=[];autosize=1;strokeColor=none;" vertex="1" parent="1">
                    <mxGeometry x="379" y="475" width="70" height="30" as="geometry"/>
                </mxCell>
                <mxCell id="102" value="(1,N)" style="text;html=1;align=center;verticalAlign=middle;resizable=0;points=[];autosize=1;strokeColor=none;" vertex="1" parent="1">
                    <mxGeometry x="470" y="1010" width="40" height="20" as="geometry"/>
                </mxCell>
                <mxCell id="103" value="(1,N)" style="text;html=1;align=center;verticalAlign=middle;resizable=0;points=[];autosize=1;strokeColor=none;" vertex="1" parent="1">
                    <mxGeometry x="650" y="620" width="40" height="20" as="geometry"/>
                </mxCell>
                <mxCell id="104" value="M:N" style="text;html=1;align=center;verticalAlign=middle;resizable=0;points=[];autosize=1;strokeColor=none;" vertex="1" parent="1">
                    <mxGeometry x="680" y="730" width="40" height="20" as="geometry"/>
                </mxCell>
                <mxCell id="105" value="(1,1)" style="text;html=1;align=center;verticalAlign=middle;resizable=0;points=[];autosize=1;strokeColor=none;" vertex="1" parent="1">
                    <mxGeometry x="210" y="570" width="40" height="20" as="geometry"/>
                </mxCell>
                <mxCell id="106" value="(1,N)" style="text;html=1;align=center;verticalAlign=middle;resizable=0;points=[];autosize=1;strokeColor=none;" vertex="1" parent="1">
                    <mxGeometry x="550" y="580" width="40" height="20" as="geometry"/>
                </mxCell>
                <mxCell id="107" value="1:N" style="text;html=1;align=center;verticalAlign=middle;resizable=0;points=[];autosize=1;strokeColor=none;" vertex="1" parent="1">
                    <mxGeometry x="375" y="520" width="30" height="20" as="geometry"/>
                </mxCell>
                <mxCell id="108" value="(1,M,N)" style="text;html=1;align=center;verticalAlign=middle;resizable=0;points=[];autosize=1;strokeColor=none;" vertex="1" parent="1">
                    <mxGeometry x="100" y="490" width="60" height="20" as="geometry"/>
                </mxCell>
                <mxCell id="109" value="(1,1,N)" style="text;html=1;align=center;verticalAlign=middle;resizable=0;points=[];autosize=1;strokeColor=none;" vertex="1" parent="1">
                    <mxGeometry x="355" y="160" width="50" height="20" as="geometry"/>
                </mxCell>
                <mxCell id="110" value="(1,1,N)" style="text;html=1;align=center;verticalAlign=middle;resizable=0;points=[];autosize=1;strokeColor=none;" vertex="1" parent="1">
                    <mxGeometry x="595" y="470" width="50" height="20" as="geometry"/>
                </mxCell>
                <mxCell id="111" value="M,N,P" style="text;html=1;align=center;verticalAlign=middle;resizable=0;points=[];autosize=1;strokeColor=none;" vertex="1" parent="1">
                    <mxGeometry x="345" y="340" width="50" height="20" as="geometry"/>
                </mxCell>
            </root>
        </mxGraphModel>
    </diagram>
</mxfile>